<svg xmlns="http://www.w3.org/2000/svg" version="1.1" id="_x3C_Layer_x3E_" viewBox="0 0 32 32" xml:space="preserve" enable-background="new 0 0 32 32"><g id="client_x2C__customer_x2C__profile_x2C__hand_x2C__personalized_1_"><g id="XMLID_1498_"><g id="XMLID_280_"><path id="XMLID_3527_" d="M14 21.5h7.4c0-.5 0-3-3.5-3h-3.7c-2.3-1.4-5.3-1-7.2.9l-.2.3" fill="none" stroke="#000000" stroke-linecap="round" stroke-linejoin="round" stroke-miterlimit="10" class="stroke-263238"></path><path id="XMLID_3514_" d="m21.3 20.7 1.2-.2 2.8-1.5c2.4-1.1 4.3-.7 4.5 1.4h0l-5.5 3.3-5.3 1.5c-.7.2-1.3.3-2 .3h-5c-.6 0-1.3.3-1.7.6l-.2.1" fill="none" stroke="#000000" stroke-linecap="round" stroke-linejoin="round" stroke-miterlimit="10" class="stroke-263238"></path><path id="XMLID_3259_" d="m1.5 24.2 3.2-3.3 6.4 6.4-3.2 3.2" fill="none" stroke="#000000" stroke-linecap="round" stroke-linejoin="round" stroke-miterlimit="10" class="stroke-263238"></path></g><g id="XMLID_1223_"><path id="XMLID_1229_" d="M8.5 10.5v.5" fill="none" stroke="#000000" stroke-linecap="round" stroke-linejoin="round" stroke-miterlimit="10" class="stroke-263238"></path><path id="XMLID_1228_" d="M8.5 8v.5" fill="none" stroke="#000000" stroke-linecap="round" stroke-linejoin="round" stroke-miterlimit="10" class="stroke-263238"></path><path id="XMLID_1227_" d="M7.5 9.5H7" fill="none" stroke="#000000" stroke-linecap="round" stroke-linejoin="round" stroke-miterlimit="10" class="stroke-263238"></path><path id="XMLID_1225_" d="M10 9.5h-.5" fill="none" stroke="#000000" stroke-linecap="round" stroke-linejoin="round" stroke-miterlimit="10" class="stroke-263238"></path></g><g id="XMLID_1167_"><path id="XMLID_1222_" d="M4.5 4.5v1" fill="none" stroke="#000000" stroke-linecap="round" stroke-linejoin="round" stroke-miterlimit="10" class="stroke-263238"></path><path id="XMLID_1221_" d="M4.5 1.5v1" fill="none" stroke="#000000" stroke-linecap="round" stroke-linejoin="round" stroke-miterlimit="10" class="stroke-263238"></path><path id="XMLID_1213_" d="M3.5 3.5h-1" fill="none" stroke="#000000" stroke-linecap="round" stroke-linejoin="round" stroke-miterlimit="10" class="stroke-263238"></path><path id="XMLID_1174_" d="M6.5 3.5h-1" fill="none" stroke="#000000" stroke-linecap="round" stroke-linejoin="round" stroke-miterlimit="10" class="stroke-263238"></path></g><g id="XMLID_625_"><g id="XMLID_692_"><path id="XMLID_757_" d="M26.1 14.5c-.3-.6-.8-1-1.4-1.3l-2.2-.9" fill="none" stroke="#000000" stroke-linecap="round" stroke-linejoin="round" stroke-miterlimit="10" class="stroke-263238"></path><path id="XMLID_754_" d="m19.5 12.3-2.2 1c-.6.3-1.1.7-1.4 1.3" fill="none" stroke="#000000" stroke-linecap="round" stroke-linejoin="round" stroke-miterlimit="10" class="stroke-263238"></path><path id="XMLID_744_" d="M19.5 12.3v-1.8c-.6-.5-1-1.2-1-2V7c0-1.4 1.1-2.5 2.5-2.5s2.5 1.1 2.5 2.5v1.5c0 .8-.4 1.5-1 2v1.8" fill="none" stroke="#000000" stroke-linecap="round" stroke-linejoin="round" stroke-miterlimit="10" class="stroke-263238"></path><path id="XMLID_695_" d="M23.5 8.5c0 1.2-.9 2.2-2 2.4" fill="none" stroke="#000000" stroke-linecap="round" stroke-linejoin="round" stroke-miterlimit="10" class="stroke-263238"></path></g><circle id="XMLID_685_" cx="21" cy="9" r="7.5" fill="none" stroke="#000000" stroke-linecap="round" stroke-linejoin="round" stroke-miterlimit="10" class="stroke-263238"></circle></g></g></g></svg>