<svg data-name="Layer 1" viewBox="0 0 128 128" xmlns="http://www.w3.org/2000/svg"><path d="M76.36 58.71a5.73 5.73 0 0 0-.71 0 5.72 5.72 0 0 0-4.8-2.06 5.68 5.68 0 0 0-4.13-2.45V41.61a5.54 5.54 0 1 0-11.08 0v15.74a6.52 6.52 0 0 0-4.2-1.69A5.67 5.67 0 0 0 47.78 57c-3.61 3.07-.91 8.12.88 11.47a22.38 22.38 0 0 1 1.18 2.4c.52 1.4 1 2.85 1.62 4.15a34.78 34.78 0 0 0 3.86 7.7c1.46 2.3 2.26 3.56 2.26 6.52A2.75 2.75 0 0 0 60.33 92h14.75a2.76 2.76 0 0 0 2.76-2.75 11.61 11.61 0 0 1 1.4-3.53c1.23-2.45 2.75-5.5 2.75-9.12V64.18a5.56 5.56 0 0 0-5.63-5.47ZM78 76.61c0 2.67-1.18 5-2.34 7.34A18.28 18.28 0 0 0 74 88H61.53c-.24-3.33-1.46-5.24-2.85-7.43a31.21 31.21 0 0 1-3.48-6.93l-.06-.15c-.53-1.21-1.05-2.63-1.58-4a24.69 24.69 0 0 0-1.39-2.86c-1.11-2.08-3-5.56-1.82-6.53a1.67 1.67 0 0 1 1.08-.4c1.49 0 3.41 2.4 4.06 4.47a2.15 2.15 0 0 0 2.08 1.76h.87l.59-.62a2.37 2.37 0 0 0 .59-1.82V41.61A1.52 1.52 0 0 1 61.15 40a1.56 1.56 0 0 1 1.58 1.61v17.82l2.73-1.08a1.71 1.71 0 0 1 2.29 1.07l.5 2.45 2.28-1a1.73 1.73 0 0 1 2.24.8l.72 2.29 2.12-1.05a1.69 1.69 0 0 1 .75-.17A1.56 1.56 0 0 1 78 64.18Z" fill="#000000" class="fill-2d76ba"></path><path d="M64 20a10 10 0 1 0-10-10 10 10 0 0 0 10 10Zm0-16a6 6 0 1 1-6 6 6 6 0 0 1 6-6ZM64 108a10 10 0 1 0 10 10 10 10 0 0 0-10-10Zm0 16a6 6 0 1 1 6-6 6 6 0 0 1-6 6ZM118 54a10 10 0 1 0 10 10 10 10 0 0 0-10-10Zm0 16a6 6 0 1 1 6-6 6 6 0 0 1-6 6ZM20 64a10 10 0 1 0-10 10 10 10 0 0 0 10-10Zm-10 6a6 6 0 1 1 6-6 6 6 0 0 1-6 6ZM102 36a10 10 0 1 0-10-10 10 10 0 0 0 10 10Zm0-16a6 6 0 1 1-6 6 6 6 0 0 1 6-6ZM26 92a10 10 0 1 0 10 10 10 10 0 0 0-10-10Zm0 16a6 6 0 1 1 6-6 6 6 0 0 1-6 6ZM102 92a10 10 0 1 0 10 10 10 10 0 0 0-10-10Zm0 16a6 6 0 1 1 6-6 6 6 0 0 1-6 6ZM26 16a10 10 0 1 0 10 10 10 10 0 0 0-10-10Zm0 16a6 6 0 1 1 6-6 6 6 0 0 1-6 6Z" fill="#000000" class="fill-3b4652"></path></svg>