<svg viewBox="0 0 64 64" xml:space="preserve" xmlns="http://www.w3.org/2000/svg"><path d="M63 12h-1V9c0-.6-.4-1-1-1h-6V1c0-.6-.4-1-1-1s-1 .4-1 1v7h-6c-.6 0-1 .4-1 1v3h-1c-.6 0-1 .4-1 1v12.9c-2-.2-4.8-1.1-5.7-4.6.7.4 1.5.7 2.7.7.6 0 1-.4 1-1s-.4-1-1-1c-1.6 0-2.2-.6-3-1.5l-.2-.2c-.3-.3-.7-.4-1.1-.2-.5.1-.7.5-.7.9 0 6.1 4 8.6 8 9v7.7c-.7-.4-1.5-.6-2.5-.6-1-1.4.3-3.4.4-3.5.2-.3.2-.7 0-1s-.5-.6-.9-.6c-3.3 0-6 2.7-6 6 0 2.6 1.5 4 3 4 .6 0 1-.4 1-1s-.4-1-1-1c-.5 0-1-.7-1-2 0-1.6.9-3 2.3-3.6-.4 1.4-.3 3 1 4.3.2.2.4.3.7.3 3 0 3 1.5 3 2v3H34v-7c0-.6-.4-1-1-1H22v-3c0-1.6 1.6-2 2-2 .3 0 .5-.1.7-.3 1.2-1.2 1.3-2.6 1.1-3.9 1.4.8 2.1 1.8 2.2 3.2 0 1.3-.5 2-1 2-.6 0-1 .4-1 1s.4 1 1 1c1.5 0 3-1.4 3-4.1-.3-3.6-3.1-5-5.7-5.9-.4-.1-.9 0-1.1.3-.3.3-.3.8 0 1.2 0 0 1.4 2.1.3 3.5-.5.1-1 .3-1.5.5V27c0-.6-.4-1-1-1H1c-.6 0-1 .4-1 1v36c0 .6.4 1 1 1h62c.6 0 1-.4 1-1V13c0-.6-.4-1-1-1zM52 52v-8h4v8h-4zm4 2v8h-4v-8h4zM46 24h4v8h-4v-8zm10-10v8h-4v-8h4zm6 0v8h-4v-8h4zm-4 20h4v8h-4v-8zm-2 8h-4v-8h4v8zm2-10v-8h4v8h-4zm-2-8v8h-4v-8h4zM46 34h4v8h-4v-8zm0 10h4v8h-4v-8zm12 0h4v8h-4v-8zM48 10h12v2H48v-2zm2 4v8h-4v-8h4zM32 58H22v-2h10v2zM22 42v-2h10v2H22zm10 12H22v-2h10v2zm0-4H22v-2h10v2zm0-4H22v-2h10v2zm0-10v2H22v-2h10zM2 28h18v34H2V28zm20 32h10v2H22v-2zm12-16h10v18H34V44zm12 10h4v8h-4v-8zm12 8v-8h4v8h-4z" fill="#347fc4" class="fill-000000"></path><path d="M17 30H5c-.6 0-1 .4-1 1s.4 1 1 1h12c.6 0 1-.4 1-1s-.4-1-1-1zM17 34H5c-.6 0-1 .4-1 1s.4 1 1 1h12c.6 0 1-.4 1-1s-.4-1-1-1zM17 38H5c-.6 0-1 .4-1 1s.4 1 1 1h12c.6 0 1-.4 1-1s-.4-1-1-1zM17 42H5c-.6 0-1 .4-1 1s.4 1 1 1h12c.6 0 1-.4 1-1s-.4-1-1-1zM17 46H5c-.6 0-1 .4-1 1s.4 1 1 1h12c.6 0 1-.4 1-1s-.4-1-1-1zM17 50H5c-.6 0-1 .4-1 1s.4 1 1 1h12c.6 0 1-.4 1-1s-.4-1-1-1zM17 54H5c-.6 0-1 .4-1 1s.4 1 1 1h12c.6 0 1-.4 1-1s-.4-1-1-1zM17 58H5c-.6 0-1 .4-1 1s.4 1 1 1h12c.6 0 1-.4 1-1s-.4-1-1-1zM41 46h-4c-.6 0-1 .4-1 1s.4 1 1 1h4c.6 0 1-.4 1-1s-.4-1-1-1zM41 50h-4c-.6 0-1 .4-1 1s.4 1 1 1h4c.6 0 1-.4 1-1s-.4-1-1-1zM41 54h-4c-.6 0-1 .4-1 1s.4 1 1 1h4c.6 0 1-.4 1-1s-.4-1-1-1zM41 58h-4c-.6 0-1 .4-1 1s.4 1 1 1h4c.6 0 1-.4 1-1s-.4-1-1-1zM27 16c-.6 0-1 .4-1 1 0 4.2 2.9 6.5 6.1 6.9.4 4 3.7 6.1 6.9 6.1.6 0 1-.4 1-1s-.4-1-1-1c-2.4 0-5-1.6-5-5 0-.6-.4-1-1-1-2.4 0-5-1.6-5-5 0-.6-.4-1-1-1zM20.1 7.9c.4 4 3.7 6.1 6.9 6.1.6 0 1-.4 1-1s-.4-1-1-1c-2.4 0-5-1.6-5-5 0-.6-.4-1-1-1-2.4 0-5-1.6-5-5 0-.6-.4-1-1-1s-1 .4-1 1c0 4.2 2.9 6.5 6.1 6.9zM33 10c2.4 0 5 1.6 5 5 0 .6.4 1 1 1s1-.4 1-1c0-2.9-1.4-4.9-3.2-6C38.9 7.7 40 5.4 40 3c0-.6-.4-1-1-1s-1 .4-1 1c0 2.4-1.6 5-5 5-.6 0-1 .4-1 1s.4 1 1 1zM12 24c.6 0 1-.4 1-1s-.4-1-1-1c-.5 0-1-.7-1-2 0-1.6.9-3 2.3-3.6-.4 1.4-.3 3 1 4.3.2.2.4.3.7.3 3 0 3 1.5 3 2 0 .6.4 1 1 1s1-.4 1-1c0-2.4-1.7-3.8-4.5-4-1-1.4.3-3.4.4-3.5.2-.3.2-.7 0-1-.2-.3-.5-.5-.9-.5-3.3 0-6 2.7-6 6 0 2.6 1.5 4 3 4z" fill="#347fc4" class="fill-000000"></path></svg>