<svg viewBox="0 0 64 64" xmlns="http://www.w3.org/2000/svg"><g data-name="11-insurance"><path d="M28.554 39.879 22 43l-6.554-3.121A25.34 25.34 0 0 1 1 17V7a39.713 39.713 0 0 0 20.432-5.659 1.1 1.1 0 0 1 1.134 0A39.713 39.713 0 0 0 43 7v10a25.34 25.34 0 0 1-14.446 22.879Z" fill="none" stroke="#347fc4" stroke-linejoin="round" stroke-width="2px" class="stroke-000000"></path><path d="M34 18h-8v-8h-8v8h-8v8h8v8h8v-8h8v-8zM46 23.177A39.713 39.713 0 0 0 63 27v10a25.34 25.34 0 0 1-14.446 22.879L42 63l-6.554-3.121A25.335 25.335 0 0 1 22.652 46" fill="none" stroke="#347fc4" stroke-linejoin="round" stroke-width="2px" class="stroke-000000"></path><path d="M30 42v4h8v8h8v-8h8v-8h-8v-8h-4" fill="none" stroke="#347fc4" stroke-linejoin="round" stroke-width="2px" class="stroke-000000"></path><path d="M38 35v3h-3" fill="none" stroke="#347fc4" stroke-linejoin="round" stroke-width="2px" class="stroke-000000"></path></g></svg>