<svg viewBox="0 0 512 512" xmlns="http://www.w3.org/2000/svg"><path d="M117.251 125.408h11.506v11.506a4 4 0 0 0 4 4h26.857a4 4 0 0 0 4-4v-11.506h11.506a4 4 0 0 0 4-4V94.55a4 4 0 0 0-4-4h-11.506V79.045a4 4 0 0 0-4-4h-26.857a4 4 0 0 0-4 4V90.55H117.25a4 4 0 0 0-4 4v26.857a4 4 0 0 0 4 4Zm4-26.858h11.506a4 4 0 0 0 4-4V83.045h18.857V94.55a4 4 0 0 0 4 4h11.506v18.857h-11.506a4 4 0 0 0-4 4v11.506h-18.857v-11.505a4 4 0 0 0-4-4H121.25ZM257.815 79.779h84.123v8h-84.123zM257.815 93.945h84.123v8h-84.123zM257.815 108.713h84.123v8h-84.123zM257.815 122.452h84.123v8h-84.123zM116.228 307.593h96.717a4 4 0 0 0 4-4V162.41a4 4 0 0 0-4-4H116.23a4 4 0 0 0-4 4v141.184a4 4 0 0 0 4 4Zm4-141.184h88.717v133.184H120.23ZM215.478 331.438H115.251a4 4 0 0 0-4 4v56.593a4 4 0 0 0 4 4h100.227a4 4 0 0 0 4-4v-56.593a4 4 0 0 0-4-4Zm-4 56.593h-92.227v-48.593h92.228Z" fill="#347fc4" class="fill-000000"></path><path d="M425.637 198.5a4.005 4.005 0 0 0-3.108-.997 85.714 85.714 0 0 1-9.33.513 84.284 84.284 0 0 1-34.795-7.504V47.285a4 4 0 0 0-4-4H84.808a4 4 0 0 0-4 4v382.296a4 4 0 0 0 4 4h289.596a4 4 0 0 0 4-4v-72.573l.189-.13c29.596-20.43 47.655-53.658 48.305-88.872l.07-3.224V201.48a4.002 4.002 0 0 0-1.331-2.98Zm-55.233 227.082H88.808V51.284h281.596v135.063a80.46 80.46 0 0 1-24.225-21.997 4 4 0 0 0-6.479 0c-15.271 21.079-40.325 33.664-67.02 33.665a85.15 85.15 0 0 1-9.33-.512 4 4 0 0 0-4.44 3.976v62.722l.07 3.79c.65 35.227 18.709 68.455 48.306 88.885l33.381 23.04a4 4 0 0 0 4.545 0l25.192-17.387ZM418.9 267.845c-.604 32.657-17.371 63.48-44.852 82.448l-31.108 21.472-31.108-21.472c-27.483-18.97-44.25-49.791-44.853-82.448l-.07-3.717.002-58.29a93.52 93.52 0 0 0 5.77.178 90.995 90.995 0 0 0 70.259-32.776 90.984 90.984 0 0 0 70.26 32.776c1.92 0 3.849-.06 5.768-.18v58.858Z" fill="#347fc4" class="fill-000000"></path><path d="M406.241 214.777a100.605 100.605 0 0 1-60.61-25.69 4 4 0 0 0-5.382 0 100.634 100.634 0 0 1-60.613 25.69 4 4 0 0 0-3.725 3.991v45.276l.067 3.635c.549 29.765 15.863 57.88 40.965 75.207l23.724 16.375a4 4 0 0 0 4.545 0l23.724-16.374c25.101-17.327 40.416-45.463 40.967-75.25l.065-3.04v-45.829a4 4 0 0 0-3.727-3.99Zm-4.337 52.698c-.504 27.231-14.527 52.961-37.513 68.828l-21.451 14.805-21.452-14.806c-22.988-15.866-37.01-41.575-37.512-68.77l-.066-3.562v-41.531a108.754 108.754 0 0 0 59.03-25.069 108.728 108.728 0 0 0 59.028 25.068l.001 42.071Z" fill="#347fc4" class="fill-000000"></path><path d="M382.504 251.617H365.3v-17.202a4 4 0 0 0-4-4h-36.726a4 4 0 0 0-4 4v17.202h-17.203a4 4 0 0 0-4 4v36.726a4 4 0 0 0 4 4h17.203v17.203a4 4 0 0 0 4 4h36.726a4 4 0 0 0 4-4v-17.203h17.203a4 4 0 0 0 4-4v-36.726a4 4 0 0 0-4-4Zm-4 36.726H361.3a4 4 0 0 0-4 4v17.203h-28.726v-17.203a4 4 0 0 0-4-4h-17.203v-28.726h17.203a4 4 0 0 0 4-4v-17.202h28.726v17.202a4 4 0 0 0 4 4h17.203Z" fill="#347fc4" class="fill-000000"></path></svg>