<svg viewBox="0 0 64 64" xmlns="http://www.w3.org/2000/svg"><path d="m16.846 20.231.154-.059v-4.106a46.843 46.843 0 0 0 15-4.947 46.851 46.851 0 0 0 15 4.947v4.1l.114.044A6.141 6.141 0 0 1 49 21.572V15.2a1 1 0 0 0-.87-.991 44.874 44.874 0 0 1-15.652-5.1 1 1 0 0 0-.956 0 44.86 44.86 0 0 1-15.652 5.1 1 1 0 0 0-.87.991v6.363a6.026 6.026 0 0 1 1.846-1.332Z" fill="#347fc4" class="fill-000000"></path><path d="M11 27.46V10.579a41.038 41.038 0 0 0 21-6.393 41.038 41.038 0 0 0 21 6.393v16.885q.975 1.851 2 4.159V9.591a1 1 0 0 0-1-1A39.027 39.027 0 0 1 33.013 2.46l-.476-.3a1 1 0 0 0-1.074 0l-.476.3A39.02 39.02 0 0 1 10 8.591a1 1 0 0 0-1 1v22.031q1.025-2.307 2-4.162Z" fill="#347fc4" class="fill-000000"></path><path d="M54.692 36.034c-1.254-3.123-5.312-12.709-8.32-13.963C46.16 21.987 41.088 20 32 20s-14.16 1.987-14.385 2.077c-3 1.249-7.053 10.834-8.307 13.957-4 .392-7.214 4.142-7.308 8.7-.068 3.319 1.177 8.191 3.62 10.685A4.694 4.694 0 0 0 9 57h1v4a1 1 0 0 0 1 1h11a1 1 0 0 0 1-1v-4h18v4a1 1 0 0 0 1 1h11a1 1 0 0 0 1-1v-4h1a4.694 4.694 0 0 0 3.38-1.586c2.443-2.494 3.688-7.366 3.62-10.685-.094-4.553-3.311-8.303-7.308-8.695ZM21 60h-9v-3h9Zm31 0h-9v-3h9Zm4.951-5.986A2.787 2.787 0 0 1 55 55H9a2.787 2.787 0 0 1-1.951-.986C5.27 52.2 3.93 48.138 4 44.771 4.077 41.037 6.769 38 10 38a1 1 0 0 0 .931-.635c2.012-5.131 5.655-12.693 7.439-13.436C18.418 23.91 23.335 22 32 22s13.582 1.91 13.615 1.923c1.8.749 5.442 8.311 7.454 13.442A1 1 0 0 0 54 38c3.231 0 5.923 3.037 6 6.771.07 3.367-1.27 7.429-3.049 9.243Z" fill="#347fc4" class="fill-000000"></path><path d="M15 38h34a1 1 0 0 0 .914-1.406l-3.985-8.966C44.925 25.119 40.629 24 32 24c-5.692 0-12.729.629-13.914 3.594l-4 9A1 1 0 0 0 15 38Zm4.929-9.628C20.256 27.551 23.2 26 32 26c9.678 0 11.717 1.486 12.086 2.406L47.461 36H16.539ZM12 41a5 5 0 1 0 5 5 5.006 5.006 0 0 0-5-5Zm0 8a3 3 0 1 1 3-3 3 3 0 0 1-3 3ZM52 41a5 5 0 1 0 5 5 5.006 5.006 0 0 0-5-5Zm0 8a3 3 0 1 1 3-3 3 3 0 0 1-3 3ZM23 47h18v2H23zM23 43h18v2H23z" fill="#347fc4" class="fill-000000"></path></svg>