<svg viewBox="0 0 33 33" xml:space="preserve" xmlns="http://www.w3.org/2000/svg"><path d="M15.838 32.5H9.856l-4.425-4.509c-.257-.26-.414-.702-.375-1.05l.575-4.897c.048-.415.426-.788.88-.866.001 0 .089-.017.231-.017.746 0 1.588.458 1.709 1.743l-.089 3.038c.005.001.048.056.086.073l.881.39c-.507-.726-.656-1.283-.479-1.729.192-.484.7-.621.971-.626h.001c.377 0 .816.146 1.074.348l3.934 3.038c.284.224.515.622.55.951l.458 4.113zm-5.567-.984h4.468l-.339-3.023a.59.59 0 0 0-.176-.28l-3.934-3.039a.936.936 0 0 0-.444-.14.25.25 0 0 0-.095.026c.009 0-.038.342.854 1.372.106.123.935 1.94.935 1.94l-3.49-1.458c-.4-.177-.684-.598-.672-1.003l.09-2.978c-.052-.511-.29-.788-.726-.788l-.145.051-.563 4.858a.458.458 0 0 0 .098.244l4.139 4.218zM17.62 28.387c.035-.329.266-.728.55-.951l3.934-3.038c.258-.201.697-.348 1.074-.348h.001c.271.005.778.142.971.626.177.446.027 1.004-.479 1.729l.881-.39c.038-.018.081-.072.086-.073l-.089-3.038c.121-1.285.963-1.743 1.709-1.743.143 0 .23.017.23.017.455.078.833.451.881.866l.575 4.897c.039.348-.118.79-.375 1.05L23.144 32.5h-5.981l.457-4.113zm9.247-1.087a.458.458 0 0 0 .098-.244l-.563-4.858-.145-.051c-.436 0-.674.277-.726.788l.09 2.978c.012.405-.271.826-.672 1.003l-3.49 1.458s.828-1.817.935-1.94c.893-1.03.846-1.372.854-1.372a.234.234 0 0 0-.095-.026.932.932 0 0 0-.444.14l-3.934 3.039a.595.595 0 0 0-.176.28l-.338 3.022h4.468l4.138-4.217zM16.707 16.286l-.123-.227c-.022-.042-2.288-4.352 1.633-6.842.868-.551 1.614-.728 2.336-.896.71-.169 1.443-.343 2.388-.885.288-.167.623-.115.873.135.659.657.911 3.196-.09 5.354-.658 1.422-2.414 3.75-6.761 3.385l-.256-.024zm6.512-7.913c-.972.527-1.752.712-2.447.877-.704.165-1.312.31-2.043.773-2.733 1.736-1.776 4.528-1.414 5.354 3.387.196 4.883-1.433 5.543-2.855.796-1.714.624-3.593.361-4.149z" fill="#347fc4" class="fill-575756"></path><path d="M21.494 12.185c-.586.843-1.246 1.794-3.507 2.446 0 0 3.167-2.425 4.492-5.014 0 0-.398 1.724-.985 2.568zM14.963 11.337l-.229-.121c-4.117-2.16-4.037-5.301-3.624-6.979C11.575 2.35 12.946.5 13.878.5c.265 0 .494.139.616.371.484.931.992 1.452 1.482 1.956.499.514 1.016 1.044 1.437 1.942 1.527 3.261-.786 5.638-2.224 6.44l-.226.128zm-1.206-9.819c-.451.31-1.596 1.696-1.837 3.575-.191 1.484.189 3.564 3.02 5.149.728-.49 2.924-2.26 1.609-5.069-.353-.752-.771-1.181-1.257-1.681-.479-.492-1.019-1.046-1.535-1.974z" fill="#347fc4" class="fill-575756"></path><path d="M13.225 5.393c-.041-.99.529-2.601.529-2.601C13.49 5.585 14.812 9.2 14.812 9.2c-1.501-1.702-1.546-2.817-1.587-3.807zM12.254 18.161c.519 0 1.063-.054 1.623-.157.053.089.105.179.154.266l.104.19c.07.129.143.262.225.431.027.048.051.098.075.149l.187.383h-1.555c-1.963 0-3.57 1.479-3.808 3.379h.945a2.908 2.908 0 0 1 2.862-2.425h3.01l-.275-.659a9.682 9.682 0 0 0-.121-.279l-.147-.321c-.021-.054-.047-.104-.087-.183l-.151-.312a2.522 2.522 0 0 0-.09-.177c-.073-.154-.153-.298-.231-.444l-.104-.19a20.338 20.338 0 0 0-.26-.444l-.253-.442-.347.077a8.192 8.192 0 0 1-1.756.204c-2.794 0-4.266-1.698-5.007-3.123-.813-1.562-.88-3.029-.763-3.496 1.202.346 2.104.354 2.904.363.807.006 1.49.054 2.415.34 3.264 1.01 3.125 5.41 3.125 5.41s.942.871 1.129 1.063c.083.079.155.163.231.25l.12.147c.068.087.138.176.212.293.08.121.16.242.266.442.023.044.049.088.068.129l.101.223c.104.234.194.496.27.775l.094.354h2.517a2.906 2.906 0 0 1 2.86 2.425h.945c-.238-1.899-1.844-3.379-3.806-3.379h-1.793a5.47 5.47 0 0 0-.216-.565l-.105-.234a4.926 4.926 0 0 0-.127-.24 5.92 5.92 0 0 0-.281-.464c-.075-.119-.163-.232-.25-.344l-.154-.188c-.097-.111-.191-.22-.281-.302a4.892 4.892 0 0 0-.797-.654 3.386 3.386 0 0 0-.22-.133c.145-1.573-.065-4.647-3.586-5.907-1.063-.381-1.908-.389-2.728-.396-.814-.01-1.657-.017-2.82-.379l-.221-.034c-.263 0-.872.147-.872 1.51 0 1.05.387 2.818 1.479 4.352.881 1.24 2.516 2.716 5.291 2.716z" fill="#347fc4" class="fill-575756"></path></svg>