<svg viewBox="0 0 846.66 846.66" xml:space="preserve" xmlns="http://www.w3.org/2000/svg" shape-rendering="geometricPrecision" text-rendering="geometricPrecision" image-rendering="optimizeQuality" fill-rule="evenodd" clip-rule="evenodd"><path d="M621.5 613.89c53.55 0 96.95-43.41 96.95-96.96 0-53.54-43.4-96.95-96.95-96.95-53.55 0-96.96 43.41-96.96 96.95 0 53.55 43.42 96.96 96.96 96.96zm-79.94 16.06c-55.6 14.85-94.86 65.65-94.86 123.29v12.63h349.6v-12.63c0-57.65-39.26-108.44-94.86-123.29-22.58 16-50.16 25.41-79.94 25.41s-57.36-9.41-79.94-25.41zm192.53-32.47c62.44 26.36 103.68 87.72 103.68 155.76v33.36c0 11.46-9.28 20.74-20.73 20.74H425.97c-11.46 0-20.74-9.28-20.74-20.74v-33.36c0-68.04 41.24-129.39 103.68-155.76-11.22-15.65-19.26-33.75-23.16-53.34h-128v62.67c0 27.28-41.48 27.28-41.48 0v-62.67H29.34c-27.27 0-27.27-41.47 0-41.47h40.43V80.79H29.34c-27.27 0-27.27-41.47 0-41.47h615.34c27.27 0 27.27 41.47 0 41.47h-40.43v298.78c5.65-.7 11.41-1.07 17.25-1.07 76.45 0 138.43 61.98 138.43 138.43 0 30.05-9.58 57.86-25.84 80.55zM562.78 391.54V80.79H111.24v421.88H483.8c4.95-48.38 35.12-90.55 78.98-111.13zm-78.42-205.8c27.27 0 27.27 41.47 0 41.47h-52.97l-54.93 69.9c-4.08 5.2-10.15 7.91-16.28 7.91l-98.25.03-55.01 83.36c-15.01 22.66-49.51-.18-34.51-22.85l60.37-91.47c3.57-6.28 10.31-10.51 18.05-10.51h99.3l54.27-69.06c3.75-5.32 9.94-8.78 16.94-8.78h63.02z" fill="#347fc4" fill-rule="nonzero" class="fill-000000"></path></svg>