<?xml version="1.0" ?><!DOCTYPE svg  PUBLIC '-//W3C//DTD SVG 1.1//EN'  'http://www.w3.org/Graphics/SVG/1.1/DTD/svg11.dtd'><svg enable-background="new 0 0 128 128" height="128px" id="Layer_1" version="1.1" viewBox="0 0 128 128" width="128px" xml:space="preserve" xmlns="http://www.w3.org/2000/svg" xmlns:xlink="http://www.w3.org/1999/xlink"><g><polygon points="56.589,29.945 64.01,25.38 71.43,29.945 69.537,21.228 76,15.325 67.427,14.494 64.01,6.284 60.591,14.494    52,15.325 58.483,21.228  "/><polygon points="87.59,37.945 95.009,33.38 102.43,37.945 100.537,29.228 107,23.325 98.427,22.494 95.009,14.284 91.592,22.494    83,23.325 89.482,29.228  "/><polygon points="128,46.325 119.427,45.494 116.009,37.284 112.592,45.494 104,46.325 110.482,52.228 108.59,60.945 116.009,56.38    123.43,60.945 121.537,52.228  "/><polygon points="25.589,37.945 33.009,33.38 40.43,37.945 38.537,29.228 45,23.325 36.427,22.494 33.009,14.284 29.591,22.494    21,23.325 27.484,29.228  "/><polygon points="24,46.325 15.427,45.494 12.009,37.284 8.591,45.494 0,46.325 6.484,52.228 4.589,60.945 12.009,56.38    19.43,60.945 17.537,52.228  "/><path d="M64.006,52.444c-8.353,0-15.119,6.772-15.119,15.117c0,8.34,6.765,15.109,15.119,15.109c8.352,0,15.108-6.77,15.108-15.109   C79.114,59.216,72.354,52.444,64.006,52.444z"/><path d="M64,37.716c-23.159,0-42,18.841-42,42c0,23.159,18.841,42,42,42s42-18.841,42-42C106,56.557,87.159,37.716,64,37.716z    M92.566,104.732C89.771,98.42,83.291,92.928,75,90.62c-3.411-0.944-7.117-1.472-11.004-1.472c-3.884,0-7.591,0.525-11.001,1.474   c-8.294,2.31-14.766,7.803-17.558,14.115C29.569,98.047,26,89.293,26,79.716c0-20.953,17.047-38,38-38s38,17.047,38,38   C102,89.291,98.434,98.044,92.566,104.732z"/></g></svg>