<svg viewBox="0 0 65 65" xml:space="preserve" xmlns="http://www.w3.org/2000/svg"><path d="M64.4 36.8c-4.3 1.7-7.7 5.4-9 6.9-.2.3-.5.3-.7.3-.3 0-.5-.1-.7-.3l-8.3-12c-.1-.1-.1-.3-.1-.5.1-.3.3-.7.7-.9.3-.2.8-.4 1.4-.7.8-.4 1.8-.8 3-1.4l-.7-1.3c-1.1.6-2.1 1-2.9 1.4-.7.3-1.2.6-1.6.8-.7.5-1.3 1.1-1.4 1.9v.6H20.8V31c-.2-.7-.7-1.4-1.4-1.9-.4-.2-.9-.5-1.6-.8-.9-.4-2-.9-3.4-1.6l-.7 1.3c1.4.8 2.6 1.3 3.5 1.7.6.3 1.2.5 1.4.7.4.2.7.6.7.9 0 .2 0 .3-.1.5l-8.3 12c-.1.2-.4.3-.7.3-.2 0-.5 0-.8-.3-1.3-1.5-4.7-5.2-9-6.9L0 38.2c4.1 1.7 7.5 5.4 8.4 6.5.5.6 1.1.9 1.9.9h.1c.7 0 1.3-.3 1.7-.8.5.5 1.3 1.2 1.6 1.9.1.3.2.4.3.6 0 .1.1.2.1.3-.3.2-.6.4-.8.7-.5.7-.7 1.6-.6 2.4.1.9.6 1.6 1.3 2.1l.1.1c.6.4 1.2.6 1.9.6.2 0 .4 0 .6-.1v.5c.1.9.6 1.7 1.3 2.2.6.4 1.3.7 2 .7.3 0 .6 0 .8-.1v.3c.1.9.6 1.7 1.3 2.2.6.4 1.3.7 2 .7.3 0 .6-.1.9-.2v.2c.1.8.5 1.5 1.2 2 .5.4 1.1.6 1.8.6.9 0 1.7-.4 2.3-1.1.6.3 1.2.5 1.8.5.2 0 .4 0 .6-.1.9-.2 1.7-.7 2.2-1.4.4-.6.6-1.3.6-1.9l.8.6c.6.4 1.3.6 1.9.6 1.1 0 2.2-.5 2.8-1.5.4-.6.6-1.3.6-1.9l.2.1c.6.4 1.3.6 1.9.6.2 0 .4 0 .6-.1.9-.2 1.7-.7 2.2-1.4.4-.6.6-1.3.6-2l.4.3c.6.4 1.3.6 1.9.6 1.1 0 2.2-.5 2.8-1.5.5-.8.7-1.7.5-2.6-.2-.9-.7-1.7-1.4-2.2L40 40.5h-2.2c-3.6 0-4.1-2.7-4.1-3l.3-.8h-7.6l-.1.6c-.3 1.8-.9 3-1.8 3.5-.5.3-1 .4-1.4.4v-5l5.8-3.2h16l7.9 11.6c.4.6 1.1.9 1.8 1h.1c.7 0 1.4-.3 1.9-.9.9-1.1 4.3-4.8 8.4-6.5l-.6-1.4zM15 51.6l-.1-.1c-.4-.3-.6-.7-.7-1.1-.1-.5 0-.9.3-1.3s.8-.7 1.4-.7c.4 0 .7.1 1 .3l.1.1c.7.5.9 1.4.6 2.1l-.4.5v.1c-.6.5-1.5.6-2.2.1zm3.8 3.3c-.4-.3-.6-.7-.7-1.2-.1-.4 0-.9.3-1.3.1-.1.2-.2.2-.3.1-.1.9-1.3.9-1.3.3-.5.9-.7 1.5-.7.4 0 .8.1 1.1.4.8.6 1 1.7.4 2.5l-1.1 1.5c-.6.8-1.8.9-2.6.4zm4.2 3c-.4-.3-.6-.7-.7-1.2-.1-.5 0-1 .3-1.3l1.1-1.5 1-1.4c.3-.5.9-.7 1.5-.7.4 0 .8.1 1.1.4.4.3.6.7.7 1.2.1.5 0 1-.3 1.3l-2.1 2.9c-.7.7-1.9.9-2.6.3zm6.4 1.9-.3.4c-.5.6-1.4.8-2.1.3-.3-.2-.5-.6-.6-1-.1-.4 0-.8.3-1.1l.3-.4c.3-.4.7-.6 1.2-.6.3 0 .6.1.9.3.7.5.8 1.5.3 2.1zm-7.9-24.5v7.1l.5.2c.1 0 1.6.5 3.1-.4 1.2-.7 2-2 2.4-4h5.1c.5 1.5 2 3.7 5.5 3.7h1.7l10.8 7.3c.4.3.7.7.8 1.2.1.5 0 1-.3 1.4-.6.9-1.8 1.1-2.7.5l-10.5-7.2-.9 1.2 7.7 5.3c.9.6 1.1 1.8.5 2.7-.3.4-.7.7-1.2.8-.5.1-1 0-1.5-.3L40 53.1l-3.8-2.6-.6 1.5 4 2.7c.7.6.9 1.7.3 2.5-.6.9-1.8 1.1-2.7.5l-5-3.5-.9 1.2 1.8 1.3v.1c.9.6 1.1 1.8.5 2.7-.3.4-.7.7-1.2.8-.5.1-1 0-1.4-.3.4-1.2.1-2.6-1-3.4-.4-.3-1-.5-1.5-.5l.3-.4c1.1-1.5.8-3.6-.7-4.6-.6-.4-1.3-.7-2-.7s-1.4.2-2 .7c-.2-.7-.6-1.3-1.2-1.7-1.1-.8-2.8-.8-3.9 0-.2-.6-.6-1.2-1.1-1.6l-.1-.1c-.7-.5-1.5-.7-2.3-.6-.1-.1-.1-.2-.2-.4s-.2-.4-.3-.7c-.5-1-1.5-1.9-2.1-2.4L20.1 33h5.6l-4.2 2.3zM39 10.9l-1.1-1-8 8-2.8-2.9-1.1 1.1 3.9 3.9z" fill="#000000" class="fill-000000"></path><path d="M32.5 26.6c6.6 0 12-5.4 12-12s-5.4-12-12-12-12 5.4-12 12 5.4 12 12 12zm0-22.4C38.3 4.2 43 8.9 43 14.7s-4.7 10.5-10.5 10.5S22 20.4 22 14.7 26.7 4.2 32.5 4.2z" fill="#000000" class="fill-000000"></path></svg>