<?xml version="1.0" ?><svg viewBox="0 0 512 512" xmlns="http://www.w3.org/2000/svg"><title/><g id="OUTLINE"><path d="M479.293,332.60742a38.67277,38.67277,0,0,0-35.68164-4.3291l-21.53882,8.17041a191.97769,191.97769,0,0,0-.929-194.27783l13.2002-13.2002a24.02784,24.02784,0,0,0,0-33.9414l-17.373-17.37305a24.02784,24.02784,0,0,0-33.9414,0L372.89111,87.79443A191.27623,191.27623,0,0,0,296,52.20312V40a24.0275,24.0275,0,0,0-24-24H240a24.0275,24.0275,0,0,0-24,24V52.20312C129.26611,70.65723,64,147.845,64,240A190.07,190.07,0,0,0,94.51514,343.92188C93.71973,343.96875,16,344,16,344v16H92.11816a55.636,55.636,0,0,0,39.59766-16.40137l11.88281-11.88281A39.73222,39.73222,0,0,1,171.88184,320H260a20,20,0,0,1,0,40H152v16h45.89746l39.46289,28.43066a39.89315,39.89315,0,0,0,37.56055,4.94922L449.28711,343.2373A22.67275,22.67275,0,0,1,480,364.44043a22.74906,22.74906,0,0,1-13.1084,20.55664L282.32129,470.86328a104.03254,104.03254,0,0,1-72.1543,5.78516L137.1084,456H16v16H134.8916l70.92383,20.04492a120.05234,120.05234,0,0,0,83.25488-6.67383l184.57031-85.86621a38.67689,38.67689,0,0,0,5.65235-66.89746ZM394.34375,88.9707a8.00771,8.00771,0,0,1,11.3125,0l17.373,17.37305a8.00771,8.00771,0,0,1,0,11.3125l-10.8252,10.8252a193.57582,193.57582,0,0,0-26.99487-30.37623ZM232,40a8.00917,8.00917,0,0,1,8-8h32a8.00917,8.00917,0,0,1,8,8v9.49731a193.09359,193.09359,0,0,0-48,0ZM391.39844,348.084l-27.68262-27.68261-11.31445,11.31445,22.59131,22.59131L269.24707,394.419a23.92678,23.92678,0,0,1-22.5332-2.96973L225.27051,376H260a36,36,0,0,0,0-72H171.88184a55.636,55.636,0,0,0-39.59766,16.40137l-11.88281,11.88281a40.12348,40.12348,0,0,1-9.65283,7.12891A173.92762,173.92762,0,0,1,80.18164,248H120V232H80.1897a175.11722,175.11722,0,0,1,38.5144-101.98145l29.58008,29.58008,11.31445-11.31445L129.29248,117.978A175.5228,175.5228,0,0,1,248,64.1897V104h16V64.1897A175.5228,175.5228,0,0,1,382.70752,117.978l-28.36475,28.36474,11.31446,11.31446,27.63867-27.63868A175.11722,175.11722,0,0,1,431.8103,232H392v16h39.81836a174.10108,174.10108,0,0,1-35.47315,98.20752Z"/><path d="M331.07422,108.59277a17.87421,17.87421,0,0,0-22.47949,5.44825l-70.71582,96.65234L158.69043,222.876a17.32525,17.32525,0,0,0-.02148,34.24414l91.62622,14.36035q.73351.13257,1.478.23144l.02954.00489v-.001a31.90525,31.90525,0,0,0,33.471-18.81348l.00855.00391,54.13574-120.96A17.88372,17.88372,0,0,0,331.07422,108.59277ZM161.124,241.30957a1.32489,1.32489,0,0,1,0-2.61914l64.94312-9.991a31.90428,31.90428,0,0,0,.0791,22.80127ZM256,256a16,16,0,1,1,16-16A16.01833,16.01833,0,0,1,256,256Zm68.81445-130.58984L281.916,221.26221a32.00607,32.00607,0,0,0-22.3877-13.06348l61.97852-84.70947a1.923,1.923,0,0,1,3.30761,1.9209Z"/></g></svg>